<svg width="150" height="150" viewBox="0 0 150 150" fill="none" xmlns="http://www.w3.org/2000/svg">
<g clip-path="url(#clip0_38009_202)">
<rect width="150" height="150" rx="75" fill="white"/>
<path d="M34.7883 124.787C48.049 124.844 60.7889 119.63 70.2055 110.293C79.622 100.956 84.9438 88.2607 85.0002 75C85.0565 61.7393 79.8427 48.9994 70.5058 39.5828C61.1689 30.1663 48.4737 24.8445 35.213 24.7881L35.128 44.788C43.0845 44.8217 50.7016 48.0148 56.3037 53.6648C61.9059 59.3147 65.0341 66.9587 65.0004 74.9151C64.9666 82.8715 61.7735 90.4886 56.1235 96.0908C50.4736 101.693 42.8296 104.821 34.8732 104.787L34.7883 124.787Z" fill="#1E90FF"/>
<path d="M115.212 25.2128C101.951 25.1565 89.2111 30.3702 79.7945 39.7071C70.378 49.044 65.0562 61.7393 64.9998 75C64.9435 88.2607 70.1573 101.001 79.4942 110.417C88.8311 119.834 101.526 125.156 114.787 125.212L114.872 105.212C106.916 105.178 99.2984 101.985 93.6963 96.3352C88.0941 90.6853 84.9659 83.0413 84.9997 75.0849C85.0334 67.1285 88.2265 59.5114 93.8765 53.9092C99.5264 48.3071 107.17 45.1788 115.127 45.2126L115.212 25.2128Z" fill="#24AE7C"/>
</g>
<rect x="2.5" y="2.5" width="145" height="145" rx="72.5" stroke="url(#paint0_linear_38009_202)" stroke-width="5"/>
<defs>
<linearGradient id="paint0_linear_38009_202" x1="0" y1="75" x2="150" y2="75" gradientUnits="userSpaceOnUse">
<stop stop-color="#24AE7C"/>
<stop offset="1" stop-color="#1E90FF"/>
</linearGradient>
<clipPath id="clip0_38009_202">
<rect width="150" height="150" rx="75" fill="white"/>
</clipPath>
</defs>
</svg>
